<svg xmlns="http://www.w3.org/2000/svg" viewBox="8.5 13 175 175"><style>g{stroke:#000}@media (prefers-color-scheme:dark){g{stroke:#fff}}</style><clipPath id="l"><polygon points="96.5,17 96.5,88.7 166,136 96.5,184 26,136 26,65"/></clipPath><clipPath id="r"><polygon points="96.5,17 166,65 166,136 96.5,88.7"/></clipPath><g fill="none" stroke-width="5.79"><g clip-path="url(#l)"><line x1="-20" y1="99.2" x2="220" y2="-64.0"/><line x1="-20" y1="115.4" x2="220" y2="-47.8"/><line x1="-20" y1="131.5" x2="220" y2="-31.7"/><line x1="-20" y1="147.7" x2="220" y2="-15.5"/><line x1="-20" y1="163.8" x2="220" y2="0.6"/><line x1="-20" y1="180.0" x2="220" y2="16.8"/><line x1="-20" y1="196.1" x2="220" y2="32.9"/><line x1="-20" y1="212.3" x2="220" y2="49.1"/><line x1="-20" y1="228.4" x2="220" y2="65.2"/><line x1="-20" y1="244.6" x2="220" y2="81.4"/><line x1="-20" y1="260.7" x2="220" y2="97.5"/></g><g clip-path="url(#r)"><line x1="-20" y1="-59.2" x2="220" y2="104.0"/><line x1="-20" y1="-43.1" x2="220" y2="120.1"/><line x1="-20" y1="-26.9" x2="220" y2="136.3"/><line x1="-20" y1="-10.8" x2="220" y2="152.4"/><line x1="-20" y1="5.4" x2="220" y2="168.6"/></g></g></svg>
